<mxfile host="app.diagrams.net" modified="2023-10-19T11:17:51.519Z" agent="Mozilla/5.0 (Macintosh; Intel Mac OS X 10_15_7) AppleWebKit/537.36 (KHTML, like Gecko) Chrome/118.0.0.0 Safari/537.36" version="22.0.5" etag="hrk_GjUFyg2WV8BYM4o6" type="github">
  <diagram name="Page-1" id="86p9ZIlNki7pvcBP722q">
    <mxGraphModel>
      <root>
        <mxCell id="0" />
        <mxCell id="1" parent="0" />
      </root>
    </mxGraphModel>
  </diagram>
</mxfile>
